<mxfile host="65bd71144e" scale="1" border="10">
    <diagram id="r4j8OCH8LPA5-8JfiloW" name="Page-1">
        <mxGraphModel dx="1714" dy="1139" grid="1" gridSize="5" guides="1" tooltips="1" connect="1" arrows="1" fold="1" page="1" pageScale="1" pageWidth="1600" pageHeight="1200" background="#ffffff" math="0" shadow="0">
            <root>
                <mxCell id="0"/>
                <mxCell id="1" parent="0"/>
                <mxCell id="0A_by2eqg8Z_qzjbImg3-26" value="&lt;div style=&quot;font-size: 32px&quot;&gt;The Gauntlet&lt;/div&gt;" style="text;html=1;strokeColor=none;fillColor=none;align=left;verticalAlign=middle;whiteSpace=wrap;rounded=0;fontSize=32;fontColor=#000000;" parent="1" vertex="1">
                    <mxGeometry x="635" y="15" width="210" height="30" as="geometry"/>
                </mxCell>
                <mxCell id="205" value="&lt;font style=&quot;font-size: 20px&quot; face=&quot;Tahoma&quot;&gt;Level Range: 5 - 30&lt;/font&gt;" style="text;html=1;strokeColor=none;fillColor=none;align=left;verticalAlign=middle;whiteSpace=wrap;rounded=0;" parent="1" vertex="1">
                    <mxGeometry x="640" y="62" width="225" height="20" as="geometry"/>
                </mxCell>
                <mxCell id="206" value="&lt;font style=&quot;font-size: 20px&quot; face=&quot;Tahoma&quot;&gt;Area Creator: Valkur&lt;/font&gt;" style="text;html=1;strokeColor=none;fillColor=none;align=left;verticalAlign=middle;whiteSpace=wrap;rounded=0;" parent="1" vertex="1">
                    <mxGeometry x="640" y="92" width="205" height="20" as="geometry"/>
                </mxCell>
                <mxCell id="457" value="" style="edgeStyle=orthogonalEdgeStyle;rounded=0;orthogonalLoop=1;jettySize=auto;html=1;endArrow=none;endFill=0;" parent="1" source="339" target="392" edge="1">
                    <mxGeometry relative="1" as="geometry"/>
                </mxCell>
                <UserObject label="The Gauntlet&lt;br&gt;(%room%)" placeholders="1" room="31686" healrate="100" manarate="100" tags="" id="339">
                    <mxCell style="rounded=0;whiteSpace=wrap;html=1;strokeWidth=2;align=center;fillColor=#FFFFFF;strokeColor=#0000FF;" parent="1" vertex="1">
                        <mxGeometry x="40" y="180" width="120" height="60" as="geometry"/>
                    </mxCell>
                </UserObject>
                <UserObject label="" tooltip="" id="381">
                    <mxCell style="rounded=0;whiteSpace=wrap;html=1;strokeWidth=2;align=center;fillColor=#FFFFFF;strokeColor=#0000FF;" parent="1" vertex="1">
                        <mxGeometry x="1010" y="120" width="37" height="24" as="geometry"/>
                    </mxCell>
                </UserObject>
                <mxCell id="386" value="Room exit directions are randomized" style="text;html=1;strokeColor=none;fillColor=none;align=left;verticalAlign=middle;whiteSpace=wrap;rounded=0;fontSize=11;" parent="1" vertex="1">
                    <mxGeometry x="1051" y="122" width="195" height="20" as="geometry"/>
                </mxCell>
                <mxCell id="454" value="" style="edgeStyle=orthogonalEdgeStyle;rounded=0;orthogonalLoop=1;jettySize=auto;html=1;endArrow=none;endFill=0;" parent="1" source="390" target="398" edge="1">
                    <mxGeometry relative="1" as="geometry"/>
                </mxCell>
                <mxCell id="455" value="" style="edgeStyle=orthogonalEdgeStyle;rounded=0;orthogonalLoop=1;jettySize=auto;html=1;endArrow=none;endFill=0;" parent="1" source="390" target="404" edge="1">
                    <mxGeometry relative="1" as="geometry"/>
                </mxCell>
                <mxCell id="456" value="" style="edgeStyle=orthogonalEdgeStyle;rounded=0;orthogonalLoop=1;jettySize=auto;html=1;endArrow=none;endFill=0;" parent="1" source="390" target="339" edge="1">
                    <mxGeometry relative="1" as="geometry"/>
                </mxCell>
                <UserObject label="The Gauntlet&lt;br&gt;(%room%)" placeholders="1" room="31696" healrate="100" manarate="100" tags="" id="390">
                    <mxCell style="rounded=0;whiteSpace=wrap;html=1;strokeWidth=2;align=center;strokeColor=#0000FF;fillColor=#CCFFCC;" parent="1" vertex="1">
                        <mxGeometry x="40" y="280" width="120" height="60" as="geometry"/>
                    </mxCell>
                </UserObject>
                <mxCell id="458" value="" style="edgeStyle=orthogonalEdgeStyle;rounded=0;orthogonalLoop=1;jettySize=auto;html=1;endArrow=none;endFill=0;" parent="1" source="392" target="395" edge="1">
                    <mxGeometry relative="1" as="geometry"/>
                </mxCell>
                <UserObject label="The Gauntlet&lt;br&gt;(%room%)" placeholders="1" room="31687" healrate="100" manarate="100" tags="" id="392">
                    <mxCell style="rounded=0;whiteSpace=wrap;html=1;strokeWidth=2;align=center;fillColor=#FFFFFF;strokeColor=#0000FF;" parent="1" vertex="1">
                        <mxGeometry x="200" y="180" width="120" height="60" as="geometry"/>
                    </mxCell>
                </UserObject>
                <mxCell id="449" value="" style="edgeStyle=orthogonalEdgeStyle;rounded=0;orthogonalLoop=1;jettySize=auto;html=1;endArrow=none;endFill=0;" parent="1" source="395" target="441" edge="1">
                    <mxGeometry relative="1" as="geometry"/>
                </mxCell>
                <mxCell id="451" value="" style="edgeStyle=orthogonalEdgeStyle;rounded=0;orthogonalLoop=1;jettySize=auto;html=1;endArrow=none;endFill=0;" parent="1" source="395" target="430" edge="1">
                    <mxGeometry relative="1" as="geometry"/>
                </mxCell>
                <UserObject label="The Gauntlet&lt;br&gt;(%room%)" placeholders="1" room="31688" healrate="100" manarate="100" tags="" id="395">
                    <mxCell style="rounded=0;whiteSpace=wrap;html=1;strokeWidth=2;align=center;fillColor=#FFFFFF;strokeColor=#0000FF;" parent="1" vertex="1">
                        <mxGeometry x="360" y="180" width="120" height="60" as="geometry"/>
                    </mxCell>
                </UserObject>
                <mxCell id="453" value="" style="edgeStyle=orthogonalEdgeStyle;rounded=0;orthogonalLoop=1;jettySize=auto;html=1;endArrow=none;endFill=0;" parent="1" source="398" target="430" edge="1">
                    <mxGeometry relative="1" as="geometry"/>
                </mxCell>
                <mxCell id="459" value="" style="edgeStyle=orthogonalEdgeStyle;rounded=0;orthogonalLoop=1;jettySize=auto;html=1;endArrow=none;endFill=0;" parent="1" source="398" target="392" edge="1">
                    <mxGeometry relative="1" as="geometry"/>
                </mxCell>
                <mxCell id="460" value="" style="edgeStyle=orthogonalEdgeStyle;rounded=0;orthogonalLoop=1;jettySize=auto;html=1;endArrow=none;endFill=0;" parent="1" source="398" target="409" edge="1">
                    <mxGeometry relative="1" as="geometry"/>
                </mxCell>
                <UserObject label="The Gauntlet&lt;br&gt;(%room%)" placeholders="1" room="31700" healrate="100" manarate="100" tags="" id="398">
                    <mxCell style="rounded=0;whiteSpace=wrap;html=1;strokeWidth=2;align=center;fillColor=#FFFFFF;strokeColor=#0000FF;" parent="1" vertex="1">
                        <mxGeometry x="200" y="280" width="120" height="60" as="geometry"/>
                    </mxCell>
                </UserObject>
                <mxCell id="462" value="" style="edgeStyle=orthogonalEdgeStyle;rounded=0;orthogonalLoop=1;jettySize=auto;html=1;endArrow=none;endFill=0;" parent="1" source="404" target="409" edge="1">
                    <mxGeometry relative="1" as="geometry"/>
                </mxCell>
                <mxCell id="463" value="" style="edgeStyle=orthogonalEdgeStyle;rounded=0;orthogonalLoop=1;jettySize=auto;html=1;endArrow=none;endFill=0;" parent="1" source="404" target="420" edge="1">
                    <mxGeometry relative="1" as="geometry"/>
                </mxCell>
                <UserObject label="The Gauntlet&lt;br&gt;(%room%)" placeholders="1" room="31697" healrate="100" manarate="100" tags="" id="404">
                    <mxCell style="rounded=0;whiteSpace=wrap;html=1;strokeWidth=2;align=center;fillColor=#FFFFFF;strokeColor=#0000FF;" parent="1" vertex="1">
                        <mxGeometry x="40" y="380" width="120" height="60" as="geometry"/>
                    </mxCell>
                </UserObject>
                <mxCell id="461" value="" style="edgeStyle=orthogonalEdgeStyle;rounded=0;orthogonalLoop=1;jettySize=auto;html=1;endArrow=none;endFill=0;" parent="1" source="409" target="435" edge="1">
                    <mxGeometry relative="1" as="geometry"/>
                </mxCell>
                <mxCell id="466" value="" style="edgeStyle=orthogonalEdgeStyle;rounded=0;orthogonalLoop=1;jettySize=auto;html=1;endArrow=none;endFill=0;" parent="1" source="409" target="412" edge="1">
                    <mxGeometry relative="1" as="geometry"/>
                </mxCell>
                <UserObject label="The Gauntlet&lt;br&gt;(%room%)" placeholders="1" room="31701" healrate="100" manarate="100" tags="" id="409">
                    <mxCell style="rounded=0;whiteSpace=wrap;html=1;strokeWidth=2;align=center;fillColor=#FFFFFF;strokeColor=#0000FF;" parent="1" vertex="1">
                        <mxGeometry x="200" y="380" width="120" height="60" as="geometry"/>
                    </mxCell>
                </UserObject>
                <mxCell id="467" value="" style="edgeStyle=orthogonalEdgeStyle;rounded=0;orthogonalLoop=1;jettySize=auto;html=1;endArrow=none;endFill=0;" parent="1" source="412" target="415" edge="1">
                    <mxGeometry relative="1" as="geometry"/>
                </mxCell>
                <mxCell id="486" value="" style="edgeStyle=orthogonalEdgeStyle;rounded=0;orthogonalLoop=1;jettySize=auto;html=1;endArrow=none;endFill=0;" parent="1" source="412" target="480" edge="1">
                    <mxGeometry relative="1" as="geometry"/>
                </mxCell>
                <UserObject label="The Gauntlet&lt;br&gt;(%room%)" placeholders="1" room="31702" healrate="100" manarate="100" tags="" id="412">
                    <mxCell style="rounded=0;whiteSpace=wrap;html=1;strokeWidth=2;align=center;fillColor=#FFFFFF;strokeColor=#0000FF;" parent="1" vertex="1">
                        <mxGeometry x="200" y="480" width="120" height="60" as="geometry"/>
                    </mxCell>
                </UserObject>
                <mxCell id="487" value="" style="edgeStyle=orthogonalEdgeStyle;rounded=0;orthogonalLoop=1;jettySize=auto;html=1;endArrow=none;endFill=0;" parent="1" source="415" target="481" edge="1">
                    <mxGeometry relative="1" as="geometry"/>
                </mxCell>
                <UserObject label="The Gauntlet&lt;br&gt;(%room%)" placeholders="1" room="31703" healrate="100" manarate="100" tags="" id="415">
                    <mxCell style="rounded=0;whiteSpace=wrap;html=1;strokeWidth=2;align=center;fillColor=#FFFFFF;strokeColor=#0000FF;" parent="1" vertex="1">
                        <mxGeometry x="200" y="580" width="120" height="60" as="geometry"/>
                    </mxCell>
                </UserObject>
                <mxCell id="464" value="" style="edgeStyle=orthogonalEdgeStyle;rounded=0;orthogonalLoop=1;jettySize=auto;html=1;endArrow=none;endFill=0;" parent="1" source="420" target="425" edge="1">
                    <mxGeometry relative="1" as="geometry"/>
                </mxCell>
                <mxCell id="465" value="" style="edgeStyle=orthogonalEdgeStyle;rounded=0;orthogonalLoop=1;jettySize=auto;html=1;endArrow=none;endFill=0;" parent="1" source="420" target="412" edge="1">
                    <mxGeometry relative="1" as="geometry"/>
                </mxCell>
                <UserObject label="The Gauntlet&lt;br&gt;(%room%)" placeholders="1" room="31698" healrate="100" manarate="100" tags="" id="420">
                    <mxCell style="rounded=0;whiteSpace=wrap;html=1;strokeWidth=2;align=center;fillColor=#FFFFFF;strokeColor=#0000FF;" parent="1" vertex="1">
                        <mxGeometry x="40" y="480" width="120" height="60" as="geometry"/>
                    </mxCell>
                </UserObject>
                <mxCell id="468" value="" style="edgeStyle=orthogonalEdgeStyle;rounded=0;orthogonalLoop=1;jettySize=auto;html=1;endArrow=none;endFill=0;" parent="1" source="425" target="415" edge="1">
                    <mxGeometry relative="1" as="geometry"/>
                </mxCell>
                <UserObject label="The Gauntlet&lt;br&gt;(%room%)" placeholders="1" room="31699" healrate="100" manarate="100" tags="" id="425">
                    <mxCell style="rounded=0;whiteSpace=wrap;html=1;strokeWidth=2;align=center;fillColor=#FFFFFF;strokeColor=#0000FF;" parent="1" vertex="1">
                        <mxGeometry x="40" y="580" width="120" height="60" as="geometry"/>
                    </mxCell>
                </UserObject>
                <mxCell id="450" value="" style="edgeStyle=orthogonalEdgeStyle;rounded=0;orthogonalLoop=1;jettySize=auto;html=1;endArrow=none;endFill=0;" parent="1" source="430" target="435" edge="1">
                    <mxGeometry relative="1" as="geometry"/>
                </mxCell>
                <mxCell id="452" value="" style="edgeStyle=orthogonalEdgeStyle;rounded=0;orthogonalLoop=1;jettySize=auto;html=1;endArrow=none;endFill=0;startArrow=none;" parent="1" source="480" target="438" edge="1">
                    <mxGeometry relative="1" as="geometry"/>
                </mxCell>
                <mxCell id="580" value="" style="edgeStyle=none;html=1;endArrow=none;endFill=0;" edge="1" parent="1" source="430" target="438">
                    <mxGeometry relative="1" as="geometry"/>
                </mxCell>
                <UserObject label="The Gauntlet&lt;br&gt;(%room%)" placeholders="1" room="31704" healrate="100" manarate="100" tags="" id="430">
                    <mxCell style="rounded=0;whiteSpace=wrap;html=1;strokeWidth=2;align=center;fillColor=#FFFFFF;strokeColor=#0000FF;" parent="1" vertex="1">
                        <mxGeometry x="360" y="280" width="120" height="60" as="geometry"/>
                    </mxCell>
                </UserObject>
                <mxCell id="479" value="" style="edgeStyle=orthogonalEdgeStyle;rounded=0;orthogonalLoop=1;jettySize=auto;html=1;endArrow=none;endFill=0;" parent="1" source="435" target="473" edge="1">
                    <mxGeometry relative="1" as="geometry"/>
                </mxCell>
                <mxCell id="482" value="" style="edgeStyle=orthogonalEdgeStyle;rounded=0;orthogonalLoop=1;jettySize=auto;html=1;endArrow=none;endFill=0;" parent="1" source="435" target="480" edge="1">
                    <mxGeometry relative="1" as="geometry"/>
                </mxCell>
                <UserObject label="The Gauntlet&lt;br&gt;(%room%)" placeholders="1" room="31705" healrate="100" manarate="100" tags="" id="435">
                    <mxCell style="rounded=0;whiteSpace=wrap;html=1;strokeWidth=2;align=center;fillColor=#FFFFFF;strokeColor=#0000FF;" parent="1" vertex="1">
                        <mxGeometry x="360" y="380" width="120" height="60" as="geometry"/>
                    </mxCell>
                </UserObject>
                <mxCell id="476" value="" style="edgeStyle=orthogonalEdgeStyle;rounded=0;orthogonalLoop=1;jettySize=auto;html=1;endArrow=none;endFill=0;" parent="1" source="438" target="473" edge="1">
                    <mxGeometry relative="1" as="geometry"/>
                </mxCell>
                <mxCell id="530" value="" style="edgeStyle=orthogonalEdgeStyle;rounded=0;orthogonalLoop=1;jettySize=auto;html=1;endArrow=none;endFill=0;" parent="1" source="438" target="508" edge="1">
                    <mxGeometry relative="1" as="geometry"/>
                </mxCell>
                <UserObject label="The Gauntlet&lt;br&gt;(%room%)" placeholders="1" room="31708" healrate="100" manarate="100" tags="" id="438">
                    <mxCell style="rounded=0;whiteSpace=wrap;html=1;strokeWidth=2;align=center;fillColor=#FFFFFF;strokeColor=#0000FF;" parent="1" vertex="1">
                        <mxGeometry x="520" y="280" width="120" height="60" as="geometry"/>
                    </mxCell>
                </UserObject>
                <mxCell id="447" value="" style="edgeStyle=orthogonalEdgeStyle;rounded=0;orthogonalLoop=1;jettySize=auto;html=1;endArrow=none;endFill=0;" parent="1" source="441" target="446" edge="1">
                    <mxGeometry relative="1" as="geometry"/>
                </mxCell>
                <mxCell id="448" value="" style="edgeStyle=orthogonalEdgeStyle;rounded=0;orthogonalLoop=1;jettySize=auto;html=1;endArrow=none;endFill=0;" parent="1" source="441" target="438" edge="1">
                    <mxGeometry relative="1" as="geometry"/>
                </mxCell>
                <UserObject label="The Gauntlet&lt;br&gt;(%room%)" placeholders="1" room="31689" healrate="100" manarate="100" tags="" id="441">
                    <mxCell style="rounded=0;whiteSpace=wrap;html=1;strokeWidth=2;align=center;fillColor=#FFFFFF;strokeColor=#0000FF;" parent="1" vertex="1">
                        <mxGeometry x="520" y="180" width="120" height="60" as="geometry"/>
                    </mxCell>
                </UserObject>
                <mxCell id="471" value="" style="edgeStyle=orthogonalEdgeStyle;rounded=0;orthogonalLoop=1;jettySize=auto;html=1;endArrow=none;endFill=0;" parent="1" source="446" target="469" edge="1">
                    <mxGeometry relative="1" as="geometry"/>
                </mxCell>
                <mxCell id="519" value="" style="edgeStyle=orthogonalEdgeStyle;rounded=0;orthogonalLoop=1;jettySize=auto;html=1;endArrow=none;endFill=0;" parent="1" source="446" target="508" edge="1">
                    <mxGeometry relative="1" as="geometry"/>
                </mxCell>
                <UserObject label="The Gauntlet&lt;br&gt;(%room%)" placeholders="1" room="31690" healrate="100" manarate="100" tags="" id="446">
                    <mxCell style="rounded=0;whiteSpace=wrap;html=1;strokeWidth=2;align=center;fillColor=#FFFFFF;strokeColor=#0000FF;" parent="1" vertex="1">
                        <mxGeometry x="680" y="180" width="120" height="60" as="geometry"/>
                    </mxCell>
                </UserObject>
                <mxCell id="472" value="" style="edgeStyle=orthogonalEdgeStyle;rounded=0;orthogonalLoop=1;jettySize=auto;html=1;endArrow=none;endFill=0;" parent="1" source="469" target="470" edge="1">
                    <mxGeometry relative="1" as="geometry"/>
                </mxCell>
                <mxCell id="520" value="" style="edgeStyle=orthogonalEdgeStyle;rounded=0;orthogonalLoop=1;jettySize=auto;html=1;endArrow=none;endFill=0;" parent="1" source="469" target="512" edge="1">
                    <mxGeometry relative="1" as="geometry"/>
                </mxCell>
                <UserObject label="The Gauntlet&lt;br&gt;(%room%)" placeholders="1" room="31691" healrate="100" manarate="100" tags="" id="469">
                    <mxCell style="rounded=0;whiteSpace=wrap;html=1;strokeWidth=2;align=center;fillColor=#FFFFFF;strokeColor=#0000FF;" parent="1" vertex="1">
                        <mxGeometry x="840" y="180" width="120" height="60" as="geometry"/>
                    </mxCell>
                </UserObject>
                <mxCell id="492" value="" style="edgeStyle=orthogonalEdgeStyle;rounded=0;orthogonalLoop=1;jettySize=auto;html=1;endArrow=none;endFill=0;" parent="1" source="470" target="488" edge="1">
                    <mxGeometry relative="1" as="geometry"/>
                </mxCell>
                <mxCell id="521" value="" style="edgeStyle=orthogonalEdgeStyle;rounded=0;orthogonalLoop=1;jettySize=auto;html=1;endArrow=none;endFill=0;" parent="1" source="470" target="516" edge="1">
                    <mxGeometry relative="1" as="geometry"/>
                </mxCell>
                <UserObject label="The Gauntlet&lt;br&gt;(%room%)" placeholders="1" room="31692" healrate="100" manarate="100" tags="" id="470">
                    <mxCell style="rounded=0;whiteSpace=wrap;html=1;strokeWidth=2;align=center;fillColor=#FFFFFF;strokeColor=#0000FF;" parent="1" vertex="1">
                        <mxGeometry x="1000" y="180" width="120" height="60" as="geometry"/>
                    </mxCell>
                </UserObject>
                <mxCell id="477" value="" style="edgeStyle=orthogonalEdgeStyle;rounded=0;orthogonalLoop=1;jettySize=auto;html=1;endArrow=none;endFill=0;" parent="1" source="473" target="474" edge="1">
                    <mxGeometry relative="1" as="geometry"/>
                </mxCell>
                <mxCell id="531" value="" style="edgeStyle=orthogonalEdgeStyle;rounded=0;orthogonalLoop=1;jettySize=auto;html=1;endArrow=none;endFill=0;" parent="1" source="473" target="509" edge="1">
                    <mxGeometry relative="1" as="geometry"/>
                </mxCell>
                <UserObject label="The Gauntlet&lt;br&gt;(%room%)" placeholders="1" room="31709" healrate="100" manarate="100" tags="" id="473">
                    <mxCell style="rounded=0;whiteSpace=wrap;html=1;strokeWidth=2;align=center;fillColor=#FFFFFF;strokeColor=#0000FF;" parent="1" vertex="1">
                        <mxGeometry x="520" y="380" width="120" height="60" as="geometry"/>
                    </mxCell>
                </UserObject>
                <mxCell id="478" value="" style="edgeStyle=orthogonalEdgeStyle;rounded=0;orthogonalLoop=1;jettySize=auto;html=1;endArrow=none;endFill=0;" parent="1" source="474" target="475" edge="1">
                    <mxGeometry relative="1" as="geometry"/>
                </mxCell>
                <mxCell id="532" value="" style="edgeStyle=orthogonalEdgeStyle;rounded=0;orthogonalLoop=1;jettySize=auto;html=1;endArrow=none;endFill=0;" parent="1" source="474" target="510" edge="1">
                    <mxGeometry relative="1" as="geometry"/>
                </mxCell>
                <UserObject label="The Gauntlet&lt;br&gt;(%room%)" placeholders="1" room="31710" healrate="100" manarate="100" tags="" id="474">
                    <mxCell style="rounded=0;whiteSpace=wrap;html=1;strokeWidth=2;align=center;fillColor=#FFFFFF;strokeColor=#0000FF;" parent="1" vertex="1">
                        <mxGeometry x="520" y="480" width="120" height="60" as="geometry"/>
                    </mxCell>
                </UserObject>
                <mxCell id="533" value="" style="edgeStyle=orthogonalEdgeStyle;rounded=0;orthogonalLoop=1;jettySize=auto;html=1;endArrow=none;endFill=0;" parent="1" source="475" target="511" edge="1">
                    <mxGeometry relative="1" as="geometry"/>
                </mxCell>
                <UserObject label="The Gauntlet&lt;br&gt;(%room%)" placeholders="1" room="31711" healrate="100" manarate="100" tags="" id="475">
                    <mxCell style="rounded=0;whiteSpace=wrap;html=1;strokeWidth=2;align=center;fillColor=#FFFFFF;strokeColor=#0000FF;" parent="1" vertex="1">
                        <mxGeometry x="520" y="580" width="120" height="60" as="geometry"/>
                    </mxCell>
                </UserObject>
                <mxCell id="483" value="" style="edgeStyle=orthogonalEdgeStyle;rounded=0;orthogonalLoop=1;jettySize=auto;html=1;endArrow=none;endFill=0;" parent="1" source="480" target="481" edge="1">
                    <mxGeometry relative="1" as="geometry"/>
                </mxCell>
                <mxCell id="484" value="" style="edgeStyle=orthogonalEdgeStyle;rounded=0;orthogonalLoop=1;jettySize=auto;html=1;endArrow=none;endFill=0;" parent="1" source="480" target="474" edge="1">
                    <mxGeometry relative="1" as="geometry"/>
                </mxCell>
                <mxCell id="485" value="" style="edgeStyle=orthogonalEdgeStyle;rounded=0;orthogonalLoop=1;jettySize=auto;html=1;endArrow=none;endFill=0;" parent="1" source="481" target="475" edge="1">
                    <mxGeometry relative="1" as="geometry"/>
                </mxCell>
                <UserObject label="The Gauntlet&lt;br&gt;(%room%)" placeholders="1" room="31707" healrate="100" manarate="100" tags="" id="481">
                    <mxCell style="rounded=0;whiteSpace=wrap;html=1;strokeWidth=2;align=center;fillColor=#FFFFFF;strokeColor=#0000FF;" parent="1" vertex="1">
                        <mxGeometry x="360" y="580" width="120" height="60" as="geometry"/>
                    </mxCell>
                </UserObject>
                <mxCell id="493" value="" style="edgeStyle=orthogonalEdgeStyle;rounded=0;orthogonalLoop=1;jettySize=auto;html=1;endArrow=none;endFill=0;" parent="1" source="488" target="489" edge="1">
                    <mxGeometry relative="1" as="geometry"/>
                </mxCell>
                <mxCell id="548" value="" style="edgeStyle=orthogonalEdgeStyle;rounded=0;orthogonalLoop=1;jettySize=auto;html=1;endArrow=none;endFill=0;" parent="1" source="488" target="546" edge="1">
                    <mxGeometry relative="1" as="geometry"/>
                </mxCell>
                <UserObject label="The Gauntlet&lt;br&gt;(%room%)" placeholders="1" room="31693" healrate="100" manarate="100" tags="" id="488">
                    <mxCell style="rounded=0;whiteSpace=wrap;html=1;strokeWidth=2;align=center;fillColor=#FFFFFF;strokeColor=#0000FF;" parent="1" vertex="1">
                        <mxGeometry x="1160" y="180" width="120" height="60" as="geometry"/>
                    </mxCell>
                </UserObject>
                <mxCell id="494" value="" style="edgeStyle=orthogonalEdgeStyle;rounded=0;orthogonalLoop=1;jettySize=auto;html=1;endArrow=none;endFill=0;" parent="1" source="489" target="490" edge="1">
                    <mxGeometry relative="1" as="geometry"/>
                </mxCell>
                <mxCell id="557" value="" style="edgeStyle=orthogonalEdgeStyle;rounded=0;orthogonalLoop=1;jettySize=auto;html=1;endArrow=none;endFill=0;" parent="1" source="489" target="553" edge="1">
                    <mxGeometry relative="1" as="geometry"/>
                </mxCell>
                <UserObject label="The Gauntlet&lt;br&gt;(%room%)" placeholders="1" room="31694" healrate="100" manarate="100" tags="" id="489">
                    <mxCell style="rounded=0;whiteSpace=wrap;html=1;strokeWidth=2;align=center;fillColor=#FFFFFF;strokeColor=#0000FF;" parent="1" vertex="1">
                        <mxGeometry x="1320" y="180" width="120" height="60" as="geometry"/>
                    </mxCell>
                </UserObject>
                <mxCell id="495" value="" style="edgeStyle=orthogonalEdgeStyle;rounded=0;orthogonalLoop=1;jettySize=auto;html=1;endArrow=none;endFill=0;" parent="1" source="490" target="491" edge="1">
                    <mxGeometry relative="1" as="geometry"/>
                </mxCell>
                <UserObject label="The Gauntlet&lt;br&gt;(%room%)" placeholders="1" room="31695" healrate="100" manarate="100" tags="" id="490">
                    <mxCell style="rounded=0;whiteSpace=wrap;html=1;strokeWidth=2;align=center;fillColor=#FFFFFF;strokeColor=#0000FF;" parent="1" vertex="1">
                        <mxGeometry x="1480" y="180" width="120" height="60" as="geometry"/>
                    </mxCell>
                </UserObject>
                <UserObject label="The Gauntlet&lt;br&gt;(%room%)" placeholders="1" room="31732" healrate="100" manarate="100" tags="" id="491">
                    <mxCell style="rounded=0;whiteSpace=wrap;html=1;strokeWidth=2;align=center;fillColor=#FFFFFF;strokeColor=#0000FF;" parent="1" vertex="1">
                        <mxGeometry x="1480" y="280" width="120" height="60" as="geometry"/>
                    </mxCell>
                </UserObject>
                <mxCell id="497" value="" style="edgeStyle=orthogonalEdgeStyle;rounded=0;orthogonalLoop=1;jettySize=auto;html=1;endArrow=none;endFill=0;" parent="1" source="496" target="491" edge="1">
                    <mxGeometry relative="1" as="geometry"/>
                </mxCell>
                <mxCell id="500" value="" style="edgeStyle=orthogonalEdgeStyle;rounded=0;orthogonalLoop=1;jettySize=auto;html=1;endArrow=none;endFill=0;" parent="1" source="496" target="498" edge="1">
                    <mxGeometry relative="1" as="geometry"/>
                </mxCell>
                <UserObject label="The Gauntlet&lt;br&gt;(%room%)" placeholders="1" room="31733" healrate="100" manarate="100" tags="" id="496">
                    <mxCell style="rounded=0;whiteSpace=wrap;html=1;strokeWidth=2;align=center;fillColor=#FFFFFF;strokeColor=#0000FF;" parent="1" vertex="1">
                        <mxGeometry x="1480" y="380" width="120" height="60" as="geometry"/>
                    </mxCell>
                </UserObject>
                <mxCell id="501" value="" style="edgeStyle=orthogonalEdgeStyle;rounded=0;orthogonalLoop=1;jettySize=auto;html=1;endArrow=none;endFill=0;" parent="1" source="498" target="499" edge="1">
                    <mxGeometry relative="1" as="geometry"/>
                </mxCell>
                <UserObject label="The Gauntlet&lt;br&gt;(%room%)" placeholders="1" room="31734" healrate="100" manarate="100" tags="" id="498">
                    <mxCell style="rounded=0;whiteSpace=wrap;html=1;strokeWidth=2;align=center;fillColor=#FFFFFF;strokeColor=#0000FF;" parent="1" vertex="1">
                        <mxGeometry x="1480" y="480" width="120" height="60" as="geometry"/>
                    </mxCell>
                </UserObject>
                <UserObject label="The Gauntlet&lt;br&gt;(%room%)" placeholders="1" room="31735" healrate="100" manarate="100" tags="" id="499">
                    <mxCell style="rounded=0;whiteSpace=wrap;html=1;strokeWidth=2;align=center;fillColor=#FFFFFF;strokeColor=#0000FF;" parent="1" vertex="1">
                        <mxGeometry x="1480" y="580" width="120" height="60" as="geometry"/>
                    </mxCell>
                </UserObject>
                <mxCell id="503" value="" style="edgeStyle=orthogonalEdgeStyle;rounded=0;orthogonalLoop=1;jettySize=auto;html=1;endArrow=none;endFill=0;" parent="1" source="502" target="498" edge="1">
                    <mxGeometry relative="1" as="geometry"/>
                </mxCell>
                <mxCell id="564" value="" style="edgeStyle=orthogonalEdgeStyle;rounded=0;orthogonalLoop=1;jettySize=auto;html=1;endArrow=none;endFill=0;" parent="1" source="502" target="563" edge="1">
                    <mxGeometry relative="1" as="geometry"/>
                </mxCell>
                <UserObject label="The Gauntlet&lt;br&gt;(%room%)" placeholders="1" room="31730" healrate="100" manarate="100" tags="" id="502">
                    <mxCell style="rounded=0;whiteSpace=wrap;html=1;strokeWidth=2;align=center;fillColor=#FFFFFF;strokeColor=#0000FF;" parent="1" vertex="1">
                        <mxGeometry x="1320" y="480" width="120" height="60" as="geometry"/>
                    </mxCell>
                </UserObject>
                <mxCell id="505" value="" style="edgeStyle=orthogonalEdgeStyle;rounded=0;orthogonalLoop=1;jettySize=auto;html=1;endArrow=none;endFill=0;" parent="1" source="504" target="502" edge="1">
                    <mxGeometry relative="1" as="geometry"/>
                </mxCell>
                <mxCell id="507" value="" style="edgeStyle=orthogonalEdgeStyle;rounded=0;orthogonalLoop=1;jettySize=auto;html=1;endArrow=none;endFill=0;" parent="1" source="504" target="506" edge="1">
                    <mxGeometry relative="1" as="geometry"/>
                </mxCell>
                <UserObject label="The Gauntlet&lt;br&gt;(%room%)" placeholders="1" room="31726" healrate="100" manarate="100" tags="" id="504">
                    <mxCell style="rounded=0;whiteSpace=wrap;html=1;strokeWidth=2;align=center;fillColor=#FFFFFF;strokeColor=#0000FF;" parent="1" vertex="1">
                        <mxGeometry x="1160" y="480" width="120" height="60" as="geometry"/>
                    </mxCell>
                </UserObject>
                <mxCell id="566" value="" style="edgeStyle=orthogonalEdgeStyle;rounded=0;orthogonalLoop=1;jettySize=auto;html=1;endArrow=none;endFill=0;" parent="1" source="506" target="563" edge="1">
                    <mxGeometry relative="1" as="geometry"/>
                </mxCell>
                <UserObject label="The Gauntlet&lt;br&gt;(%room%)" placeholders="1" room="31727" healrate="100" manarate="100" tags="" id="506">
                    <mxCell style="rounded=0;whiteSpace=wrap;html=1;strokeWidth=2;align=center;fillColor=#FFFFFF;strokeColor=#0000FF;" parent="1" vertex="1">
                        <mxGeometry x="1160" y="580" width="120" height="60" as="geometry"/>
                    </mxCell>
                </UserObject>
                <mxCell id="527" value="" style="edgeStyle=orthogonalEdgeStyle;rounded=0;orthogonalLoop=1;jettySize=auto;html=1;endArrow=none;endFill=0;" parent="1" source="508" target="509" edge="1">
                    <mxGeometry relative="1" as="geometry"/>
                </mxCell>
                <mxCell id="537" value="" style="edgeStyle=orthogonalEdgeStyle;rounded=0;orthogonalLoop=1;jettySize=auto;html=1;endArrow=none;endFill=0;" parent="1" source="508" target="512" edge="1">
                    <mxGeometry relative="1" as="geometry"/>
                </mxCell>
                <UserObject label="The Gauntlet&lt;br&gt;(%room%)" placeholders="1" room="31712" healrate="100" manarate="100" tags="" id="508">
                    <mxCell style="rounded=0;whiteSpace=wrap;html=1;strokeWidth=2;align=center;fillColor=#FFFFFF;strokeColor=#0000FF;" parent="1" vertex="1">
                        <mxGeometry x="680" y="280" width="120" height="60" as="geometry"/>
                    </mxCell>
                </UserObject>
                <mxCell id="528" value="" style="edgeStyle=orthogonalEdgeStyle;rounded=0;orthogonalLoop=1;jettySize=auto;html=1;endArrow=none;endFill=0;" parent="1" source="509" target="510" edge="1">
                    <mxGeometry relative="1" as="geometry"/>
                </mxCell>
                <mxCell id="536" value="" style="edgeStyle=orthogonalEdgeStyle;rounded=0;orthogonalLoop=1;jettySize=auto;html=1;endArrow=none;endFill=0;" parent="1" source="509" target="513" edge="1">
                    <mxGeometry relative="1" as="geometry"/>
                </mxCell>
                <UserObject label="The Gauntlet&lt;br&gt;(%room%)" placeholders="1" room="31713" healrate="100" manarate="100" tags="" id="509">
                    <mxCell style="rounded=0;whiteSpace=wrap;html=1;strokeWidth=2;align=center;fillColor=#FFFFFF;strokeColor=#0000FF;" parent="1" vertex="1">
                        <mxGeometry x="680" y="380" width="120" height="60" as="geometry"/>
                    </mxCell>
                </UserObject>
                <mxCell id="529" value="" style="edgeStyle=orthogonalEdgeStyle;rounded=0;orthogonalLoop=1;jettySize=auto;html=1;endArrow=none;endFill=0;" parent="1" source="510" target="511" edge="1">
                    <mxGeometry relative="1" as="geometry"/>
                </mxCell>
                <mxCell id="535" value="" style="edgeStyle=orthogonalEdgeStyle;rounded=0;orthogonalLoop=1;jettySize=auto;html=1;endArrow=none;endFill=0;" parent="1" source="510" target="514" edge="1">
                    <mxGeometry relative="1" as="geometry"/>
                </mxCell>
                <UserObject label="The Gauntlet&lt;br&gt;(%room%)" placeholders="1" room="31714" healrate="100" manarate="100" tags="" id="510">
                    <mxCell style="rounded=0;whiteSpace=wrap;html=1;strokeWidth=2;align=center;fillColor=#FFFFFF;strokeColor=#0000FF;" parent="1" vertex="1">
                        <mxGeometry x="680" y="480" width="120" height="60" as="geometry"/>
                    </mxCell>
                </UserObject>
                <mxCell id="534" value="" style="edgeStyle=orthogonalEdgeStyle;rounded=0;orthogonalLoop=1;jettySize=auto;html=1;endArrow=none;endFill=0;" parent="1" source="511" target="515" edge="1">
                    <mxGeometry relative="1" as="geometry"/>
                </mxCell>
                <UserObject label="The Gauntlet&lt;br&gt;(%room%)" placeholders="1" room="31715" healrate="100" manarate="100" tags="" id="511">
                    <mxCell style="rounded=0;whiteSpace=wrap;html=1;strokeWidth=2;align=center;fillColor=#FFFFFF;strokeColor=#0000FF;" parent="1" vertex="1">
                        <mxGeometry x="680" y="580" width="120" height="60" as="geometry"/>
                    </mxCell>
                </UserObject>
                <mxCell id="524" value="" style="edgeStyle=orthogonalEdgeStyle;rounded=0;orthogonalLoop=1;jettySize=auto;html=1;endArrow=none;endFill=0;" parent="1" source="512" target="513" edge="1">
                    <mxGeometry relative="1" as="geometry"/>
                </mxCell>
                <mxCell id="538" value="" style="edgeStyle=orthogonalEdgeStyle;rounded=0;orthogonalLoop=1;jettySize=auto;html=1;endArrow=none;endFill=0;" parent="1" source="512" target="516" edge="1">
                    <mxGeometry relative="1" as="geometry"/>
                </mxCell>
                <UserObject label="The Gauntlet&lt;br&gt;(%room%)" placeholders="1" room="31716" healrate="100" manarate="100" tags="" id="512">
                    <mxCell style="rounded=0;whiteSpace=wrap;html=1;strokeWidth=2;align=center;fillColor=#FFFFFF;strokeColor=#0000FF;" parent="1" vertex="1">
                        <mxGeometry x="840" y="280" width="120" height="60" as="geometry"/>
                    </mxCell>
                </UserObject>
                <mxCell id="525" value="" style="edgeStyle=orthogonalEdgeStyle;rounded=0;orthogonalLoop=1;jettySize=auto;html=1;endArrow=none;endFill=0;" parent="1" source="513" target="514" edge="1">
                    <mxGeometry relative="1" as="geometry"/>
                </mxCell>
                <mxCell id="539" value="" style="edgeStyle=orthogonalEdgeStyle;rounded=0;orthogonalLoop=1;jettySize=auto;html=1;endArrow=none;endFill=0;" parent="1" source="513" target="517" edge="1">
                    <mxGeometry relative="1" as="geometry"/>
                </mxCell>
                <UserObject label="The Gauntlet&lt;br&gt;(%room%)" placeholders="1" room="31717" healrate="100" manarate="100" tags="" id="513">
                    <mxCell style="rounded=0;whiteSpace=wrap;html=1;strokeWidth=2;align=center;fillColor=#FFFFFF;strokeColor=#0000FF;" parent="1" vertex="1">
                        <mxGeometry x="840" y="380" width="120" height="60" as="geometry"/>
                    </mxCell>
                </UserObject>
                <mxCell id="526" value="" style="edgeStyle=orthogonalEdgeStyle;rounded=0;orthogonalLoop=1;jettySize=auto;html=1;endArrow=none;endFill=0;" parent="1" source="514" target="515" edge="1">
                    <mxGeometry relative="1" as="geometry"/>
                </mxCell>
                <mxCell id="540" value="" style="edgeStyle=orthogonalEdgeStyle;rounded=0;orthogonalLoop=1;jettySize=auto;html=1;endArrow=none;endFill=0;" parent="1" source="514" target="518" edge="1">
                    <mxGeometry relative="1" as="geometry"/>
                </mxCell>
                <UserObject label="The Gauntlet&lt;br&gt;(%room%)" placeholders="1" room="31718" healrate="100" manarate="100" tags="" id="514">
                    <mxCell style="rounded=0;whiteSpace=wrap;html=1;strokeWidth=2;align=center;fillColor=#FFFFFF;strokeColor=#0000FF;" parent="1" vertex="1">
                        <mxGeometry x="840" y="480" width="120" height="60" as="geometry"/>
                    </mxCell>
                </UserObject>
                <mxCell id="542" value="" style="edgeStyle=orthogonalEdgeStyle;rounded=0;orthogonalLoop=1;jettySize=auto;html=1;endArrow=none;endFill=0;" parent="1" source="515" target="541" edge="1">
                    <mxGeometry relative="1" as="geometry"/>
                </mxCell>
                <UserObject label="The Gauntlet&lt;br&gt;(%room%)" placeholders="1" room="31719" healrate="100" manarate="100" tags="" id="515">
                    <mxCell style="rounded=0;whiteSpace=wrap;html=1;strokeWidth=2;align=center;fillColor=#FFFFFF;strokeColor=#0000FF;" parent="1" vertex="1">
                        <mxGeometry x="840" y="580" width="120" height="60" as="geometry"/>
                    </mxCell>
                </UserObject>
                <mxCell id="522" value="" style="edgeStyle=orthogonalEdgeStyle;rounded=0;orthogonalLoop=1;jettySize=auto;html=1;endArrow=none;endFill=0;" parent="1" source="516" target="517" edge="1">
                    <mxGeometry relative="1" as="geometry"/>
                </mxCell>
                <mxCell id="552" value="" style="edgeStyle=orthogonalEdgeStyle;rounded=0;orthogonalLoop=1;jettySize=auto;html=1;endArrow=none;endFill=0;" parent="1" source="516" target="546" edge="1">
                    <mxGeometry relative="1" as="geometry"/>
                </mxCell>
                <UserObject label="The Gauntlet&lt;br&gt;(%room%)" placeholders="1" room="31720" healrate="100" manarate="100" tags="" id="516">
                    <mxCell style="rounded=0;whiteSpace=wrap;html=1;strokeWidth=2;align=center;fillColor=#FFFFFF;strokeColor=#0000FF;" parent="1" vertex="1">
                        <mxGeometry x="1000" y="280" width="120" height="60" as="geometry"/>
                    </mxCell>
                </UserObject>
                <mxCell id="523" value="" style="edgeStyle=orthogonalEdgeStyle;rounded=0;orthogonalLoop=1;jettySize=auto;html=1;endArrow=none;endFill=0;" parent="1" source="517" target="518" edge="1">
                    <mxGeometry relative="1" as="geometry"/>
                </mxCell>
                <mxCell id="551" value="" style="edgeStyle=orthogonalEdgeStyle;rounded=0;orthogonalLoop=1;jettySize=auto;html=1;endArrow=none;endFill=0;" parent="1" source="517" target="547" edge="1">
                    <mxGeometry relative="1" as="geometry"/>
                </mxCell>
                <UserObject label="The Gauntlet&lt;br&gt;(%room%)" placeholders="1" room="31721" healrate="100" manarate="100" tags="" id="517">
                    <mxCell style="rounded=0;whiteSpace=wrap;html=1;strokeWidth=2;align=center;fillColor=#FFFFFF;strokeColor=#0000FF;" parent="1" vertex="1">
                        <mxGeometry x="1000" y="380" width="120" height="60" as="geometry"/>
                    </mxCell>
                </UserObject>
                <mxCell id="543" value="" style="edgeStyle=orthogonalEdgeStyle;rounded=0;orthogonalLoop=1;jettySize=auto;html=1;endArrow=none;endFill=0;" parent="1" source="518" target="541" edge="1">
                    <mxGeometry relative="1" as="geometry"/>
                </mxCell>
                <mxCell id="545" value="" style="edgeStyle=orthogonalEdgeStyle;rounded=0;orthogonalLoop=1;jettySize=auto;html=1;endArrow=none;endFill=0;" parent="1" source="518" target="504" edge="1">
                    <mxGeometry relative="1" as="geometry"/>
                </mxCell>
                <UserObject label="The Gauntlet&lt;br&gt;(%room%)" placeholders="1" room="31722" healrate="100" manarate="100" tags="" id="518">
                    <mxCell style="rounded=0;whiteSpace=wrap;html=1;strokeWidth=2;align=center;fillColor=#FFFFFF;strokeColor=#0000FF;" parent="1" vertex="1">
                        <mxGeometry x="1000" y="480" width="120" height="60" as="geometry"/>
                    </mxCell>
                </UserObject>
                <mxCell id="544" value="" style="edgeStyle=orthogonalEdgeStyle;rounded=0;orthogonalLoop=1;jettySize=auto;html=1;endArrow=none;endFill=0;" parent="1" source="541" target="506" edge="1">
                    <mxGeometry relative="1" as="geometry"/>
                </mxCell>
                <UserObject label="The Gauntlet&lt;br&gt;(%room%)" placeholders="1" room="31723" healrate="100" manarate="100" tags="" id="541">
                    <mxCell style="rounded=0;whiteSpace=wrap;html=1;strokeWidth=2;align=center;fillColor=#FFFFFF;strokeColor=#0000FF;" parent="1" vertex="1">
                        <mxGeometry x="1000" y="580" width="120" height="60" as="geometry"/>
                    </mxCell>
                </UserObject>
                <mxCell id="549" value="" style="edgeStyle=orthogonalEdgeStyle;rounded=0;orthogonalLoop=1;jettySize=auto;html=1;endArrow=none;endFill=0;" parent="1" source="546" target="547" edge="1">
                    <mxGeometry relative="1" as="geometry"/>
                </mxCell>
                <mxCell id="555" value="" style="edgeStyle=orthogonalEdgeStyle;rounded=0;orthogonalLoop=1;jettySize=auto;html=1;endArrow=none;endFill=0;" parent="1" source="546" target="553" edge="1">
                    <mxGeometry relative="1" as="geometry"/>
                </mxCell>
                <UserObject label="The Gauntlet&lt;br&gt;(%room%)" placeholders="1" room="31724" healrate="100" manarate="100" tags="" id="546">
                    <mxCell style="rounded=0;whiteSpace=wrap;html=1;strokeWidth=2;align=center;fillColor=#FFFFFF;strokeColor=#0000FF;" parent="1" vertex="1">
                        <mxGeometry x="1160" y="280" width="120" height="60" as="geometry"/>
                    </mxCell>
                </UserObject>
                <mxCell id="550" value="" style="edgeStyle=orthogonalEdgeStyle;rounded=0;orthogonalLoop=1;jettySize=auto;html=1;endArrow=none;endFill=0;" parent="1" source="547" target="504" edge="1">
                    <mxGeometry relative="1" as="geometry"/>
                </mxCell>
                <mxCell id="556" value="" style="edgeStyle=orthogonalEdgeStyle;rounded=0;orthogonalLoop=1;jettySize=auto;html=1;endArrow=none;endFill=0;" parent="1" source="547" target="554" edge="1">
                    <mxGeometry relative="1" as="geometry"/>
                </mxCell>
                <UserObject label="The Gauntlet&lt;br&gt;(%room%)" placeholders="1" room="31725" healrate="100" manarate="100" tags="" id="547">
                    <mxCell style="rounded=0;whiteSpace=wrap;html=1;strokeWidth=2;align=center;fillColor=#FFFFFF;strokeColor=#0000FF;" parent="1" vertex="1">
                        <mxGeometry x="1160" y="380" width="120" height="60" as="geometry"/>
                    </mxCell>
                </UserObject>
                <mxCell id="558" value="" style="edgeStyle=orthogonalEdgeStyle;rounded=0;orthogonalLoop=1;jettySize=auto;html=1;endArrow=none;endFill=0;" parent="1" source="553" target="554" edge="1">
                    <mxGeometry relative="1" as="geometry"/>
                </mxCell>
                <mxCell id="559" value="" style="edgeStyle=orthogonalEdgeStyle;rounded=0;orthogonalLoop=1;jettySize=auto;html=1;endArrow=none;endFill=0;" parent="1" source="553" target="491" edge="1">
                    <mxGeometry relative="1" as="geometry"/>
                </mxCell>
                <UserObject label="The Gauntlet&lt;br&gt;(%room%)" placeholders="1" room="31728" healrate="100" manarate="100" tags="" id="553">
                    <mxCell style="rounded=0;whiteSpace=wrap;html=1;strokeWidth=2;align=center;fillColor=#FFFFFF;strokeColor=#0000FF;" parent="1" vertex="1">
                        <mxGeometry x="1320" y="280" width="120" height="60" as="geometry"/>
                    </mxCell>
                </UserObject>
                <mxCell id="560" value="" style="edgeStyle=orthogonalEdgeStyle;rounded=0;orthogonalLoop=1;jettySize=auto;html=1;endArrow=none;endFill=0;" parent="1" source="554" target="496" edge="1">
                    <mxGeometry relative="1" as="geometry"/>
                </mxCell>
                <mxCell id="562" value="" style="edgeStyle=orthogonalEdgeStyle;rounded=0;orthogonalLoop=1;jettySize=auto;html=1;endArrow=none;endFill=0;" parent="1" source="554" target="502" edge="1">
                    <mxGeometry relative="1" as="geometry"/>
                </mxCell>
                <UserObject label="The Gauntlet&lt;br&gt;(%room%)" placeholders="1" room="31729" healrate="100" manarate="100" tags="" id="554">
                    <mxCell style="rounded=0;whiteSpace=wrap;html=1;strokeWidth=2;align=center;fillColor=#FFFFFF;strokeColor=#0000FF;" parent="1" vertex="1">
                        <mxGeometry x="1320" y="380" width="120" height="60" as="geometry"/>
                    </mxCell>
                </UserObject>
                <mxCell id="565" value="" style="edgeStyle=orthogonalEdgeStyle;rounded=0;orthogonalLoop=1;jettySize=auto;html=1;endArrow=none;endFill=0;" parent="1" source="563" target="499" edge="1">
                    <mxGeometry relative="1" as="geometry"/>
                </mxCell>
                <UserObject label="The Gauntlet&lt;br&gt;(%room%)" placeholders="1" room="31731" healrate="100" manarate="100" tags="" id="563">
                    <mxCell style="rounded=0;whiteSpace=wrap;html=1;strokeWidth=2;align=center;fillColor=#FFFFFF;strokeColor=#0000FF;" parent="1" vertex="1">
                        <mxGeometry x="1320" y="580" width="120" height="60" as="geometry"/>
                    </mxCell>
                </UserObject>
                <mxCell id="572" value="" style="edgeStyle=none;rounded=0;jumpStyle=arc;orthogonalLoop=1;jettySize=auto;html=1;endArrow=none;endFill=0;" parent="1" source="567" target="569" edge="1">
                    <mxGeometry relative="1" as="geometry"/>
                </mxCell>
                <UserObject label="The Gauntlet&lt;br&gt;(%room%)" placeholders="1" room="31736" healrate="100" manarate="100" tags="" id="567">
                    <mxCell style="rounded=0;whiteSpace=wrap;html=1;strokeWidth=1;align=center;fillColor=#FFFFFF;" parent="1" vertex="1">
                        <mxGeometry x="1660" y="380" width="120" height="60" as="geometry"/>
                    </mxCell>
                </UserObject>
                <mxCell id="568" style="rounded=0;orthogonalLoop=1;jettySize=auto;html=1;exitX=1;exitY=0;exitDx=0;exitDy=0;entryX=0;entryY=1;entryDx=0;entryDy=0;endArrow=none;endFill=0;jumpStyle=arc;" parent="1" source="502" target="567" edge="1">
                    <mxGeometry relative="1" as="geometry">
                        <Array as="points">
                            <mxPoint x="1460" y="460"/>
                            <mxPoint x="1640" y="460"/>
                        </Array>
                    </mxGeometry>
                </mxCell>
                <mxCell id="573" value="" style="edgeStyle=none;rounded=0;jumpStyle=arc;orthogonalLoop=1;jettySize=auto;html=1;endArrow=none;endFill=0;" parent="1" source="569" target="570" edge="1">
                    <mxGeometry relative="1" as="geometry"/>
                </mxCell>
                <UserObject label="Pre-Battle Room&lt;br&gt;(%room%)" placeholders="1" room="31737" healrate="100" manarate="100" tags="" id="569">
                    <mxCell style="rounded=0;whiteSpace=wrap;html=1;strokeWidth=1;align=center;fillColor=#FFFFFF;" parent="1" vertex="1">
                        <mxGeometry x="1820" y="380" width="120" height="60" as="geometry"/>
                    </mxCell>
                </UserObject>
                <UserObject label="ROOM BEFORE FIGHT&lt;br&gt;(%room%)" placeholders="1" room="31738" healrate="100" manarate="100" tags="" id="570">
                    <mxCell style="rounded=0;whiteSpace=wrap;html=1;strokeWidth=1;align=center;fillColor=#FFFFFF;" parent="1" vertex="1">
                        <mxGeometry x="1820" y="480" width="120" height="60" as="geometry"/>
                    </mxCell>
                </UserObject>
                <UserObject label="BATTLE ROOM&lt;br&gt;(%room%)" placeholders="1" room="31739" healrate="100" manarate="100" tags="" id="571">
                    <mxCell style="rounded=0;whiteSpace=wrap;html=1;strokeWidth=2;align=center;fillColor=#FFFFFF;strokeColor=#FF0000;" parent="1" vertex="1">
                        <mxGeometry x="1660" y="480" width="120" height="60" as="geometry"/>
                    </mxCell>
                </UserObject>
                <mxCell id="578" value="" style="endArrow=none;html=1;rounded=0;shadow=0;sketch=0;fontSize=13;jumpStyle=none;jumpSize=6;verticalAlign=middle;horizontal=1;endFill=0;entryX=0;entryY=0.5;entryDx=0;entryDy=0;exitX=1;exitY=0.5;exitDx=0;exitDy=0;" parent="1" source="571" target="570" edge="1">
                    <mxGeometry relative="1" as="geometry">
                        <mxPoint x="1320" y="163" as="sourcePoint"/>
                        <mxPoint x="1360" y="163" as="targetPoint"/>
                    </mxGeometry>
                </mxCell>
                <mxCell id="579" value="&lt;div style=&quot;font-size: 20px;&quot;&gt;|&lt;/div&gt;" style="edgeLabel;resizable=0;html=1;align=center;verticalAlign=middle;fontSize=20;strokeColor=#630000;strokeWidth=1;fillColor=#FF0000;gradientColor=none;horizontal=1;labelBackgroundColor=none;direction=south;rotation=0;" parent="578" connectable="0" vertex="1">
                    <mxGeometry relative="1" as="geometry">
                        <mxPoint x="-2" y="-3" as="offset"/>
                    </mxGeometry>
                </mxCell>
                <UserObject label="The Gauntlet&lt;br&gt;(%room%)" placeholders="1" room="31706" healrate="100" manarate="100" tags="" id="480">
                    <mxCell style="rounded=0;whiteSpace=wrap;html=1;strokeWidth=2;align=center;fillColor=#FFFFFF;strokeColor=#0000FF;" parent="1" vertex="1">
                        <mxGeometry x="360" y="480" width="120" height="60" as="geometry"/>
                    </mxCell>
                </UserObject>
            </root>
        </mxGraphModel>
    </diagram>
</mxfile>